<svg width="90" height="109" viewBox="0 0 90 109" fill="none" xmlns="http://www.w3.org/2000/svg">
<g filter="url(#filter0_d)">
<rect x="12" y="4" width="66" height="66" rx="15" fill="#48C1F0"/>
</g>
<path d="M14.5944 91L10.1904 86.932V91H9.20639V82.456H10.1904V86.38L14.3904 82.456H15.6504L11.1864 86.62L15.8784 91H14.5944ZM21.6853 87.952H17.2573C17.2653 88.72 17.4413 89.3 17.7853 89.692C18.1373 90.084 18.6453 90.28 19.3093 90.28C20.0133 90.28 20.6613 90.044 21.2533 89.572L21.5773 90.28C21.3133 90.528 20.9733 90.724 20.5573 90.868C20.1493 91.012 19.7293 91.084 19.2973 91.084C18.3533 91.084 17.6133 90.808 17.0773 90.256C16.5413 89.696 16.2733 88.932 16.2733 87.964C16.2733 87.348 16.3933 86.804 16.6333 86.332C16.8733 85.852 17.2093 85.48 17.6413 85.216C18.0733 84.952 18.5653 84.82 19.1173 84.82C19.9173 84.82 20.5453 85.084 21.0013 85.612C21.4573 86.132 21.6853 86.852 21.6853 87.772V87.952ZM19.1293 85.576C18.6253 85.576 18.2133 85.728 17.8933 86.032C17.5813 86.336 17.3813 86.764 17.2933 87.316H20.8093C20.7613 86.748 20.5933 86.316 20.3053 86.02C20.0253 85.724 19.6333 85.576 19.1293 85.576ZM26.1726 84.82C26.7006 84.82 27.1686 84.952 27.5766 85.216C27.9846 85.48 28.3006 85.852 28.5246 86.332C28.7486 86.804 28.8606 87.352 28.8606 87.976C28.8606 88.6 28.7486 89.148 28.5246 89.62C28.3006 90.084 27.9846 90.444 27.5766 90.7C27.1766 90.956 26.7086 91.084 26.1726 91.084C25.7006 91.084 25.2886 90.98 24.9366 90.772C24.5846 90.564 24.3166 90.268 24.1326 89.884V93.592H23.1606V86.656C23.1606 86.032 23.1286 85.468 23.0646 84.964H23.9886L24.0846 86.128C24.2526 85.712 24.5166 85.392 24.8766 85.168C25.2446 84.936 25.6766 84.82 26.1726 84.82ZM25.9926 90.28C26.5846 90.28 27.0406 90.08 27.3606 89.68C27.6886 89.28 27.8526 88.712 27.8526 87.976C27.8526 87.24 27.6886 86.668 27.3606 86.26C27.0326 85.844 26.5766 85.636 25.9926 85.636C25.3926 85.636 24.9326 85.836 24.6126 86.236C24.2926 86.636 24.1326 87.208 24.1326 87.952C24.1326 88.696 24.2926 89.272 24.6126 89.68C24.9326 90.08 25.3926 90.28 25.9926 90.28ZM35.6719 84.964V91H34.7119V89.908C34.5359 90.284 34.2679 90.576 33.9079 90.784C33.5559 90.984 33.1439 91.084 32.6719 91.084C32.1359 91.084 31.6639 90.956 31.2559 90.7C30.8559 90.444 30.5439 90.084 30.3199 89.62C30.1039 89.148 29.9959 88.6 29.9959 87.976C29.9959 87.352 30.1079 86.804 30.3319 86.332C30.5559 85.852 30.8679 85.48 31.2679 85.216C31.6759 84.952 32.1439 84.82 32.6719 84.82C33.1439 84.82 33.5559 84.924 33.9079 85.132C34.2599 85.34 34.5279 85.632 34.7119 86.008V84.964H35.6719ZM32.8639 90.28C33.4559 90.28 33.9119 90.08 34.2319 89.68C34.5519 89.272 34.7119 88.696 34.7119 87.952C34.7119 87.208 34.5519 86.636 34.2319 86.236C33.9119 85.836 33.4559 85.636 32.8639 85.636C32.2719 85.636 31.8079 85.844 31.4719 86.26C31.1439 86.668 30.9799 87.24 30.9799 87.976C30.9799 88.712 31.1439 89.28 31.4719 89.68C31.7999 90.08 32.2639 90.28 32.8639 90.28ZM37.5512 82.168H38.5232V91H37.5512V82.168ZM45.7266 84.964V91H44.7666V89.908C44.5906 90.284 44.3226 90.576 43.9626 90.784C43.6106 90.984 43.1986 91.084 42.7266 91.084C42.1906 91.084 41.7186 90.956 41.3106 90.7C40.9106 90.444 40.5986 90.084 40.3746 89.62C40.1586 89.148 40.0506 88.6 40.0506 87.976C40.0506 87.352 40.1626 86.804 40.3866 86.332C40.6106 85.852 40.9226 85.48 41.3226 85.216C41.7306 84.952 42.1986 84.82 42.7266 84.82C43.1986 84.82 43.6106 84.924 43.9626 85.132C44.3146 85.34 44.5826 85.632 44.7666 86.008V84.964H45.7266ZM42.9186 90.28C43.5106 90.28 43.9666 90.08 44.2866 89.68C44.6066 89.272 44.7666 88.696 44.7666 87.952C44.7666 87.208 44.6066 86.636 44.2866 86.236C43.9666 85.836 43.5106 85.636 42.9186 85.636C42.3266 85.636 41.8626 85.844 41.5266 86.26C41.1986 86.668 41.0346 87.24 41.0346 87.976C41.0346 88.712 41.1986 89.28 41.5266 89.68C41.8546 90.08 42.3186 90.28 42.9186 90.28ZM50.8548 82.456H53.7228C55.0908 82.456 56.1468 82.828 56.8908 83.572C57.6428 84.308 58.0188 85.356 58.0188 86.716C58.0188 88.084 57.6428 89.14 56.8908 89.884C56.1468 90.628 55.0908 91 53.7228 91H50.8548V82.456ZM53.6628 90.16C54.7668 90.16 55.5948 89.872 56.1468 89.296C56.7068 88.72 56.9868 87.86 56.9868 86.716C56.9868 84.436 55.8788 83.296 53.6628 83.296H51.8388V90.16H53.6628ZM64.74 87.952H60.312C60.32 88.72 60.496 89.3 60.84 89.692C61.192 90.084 61.7 90.28 62.364 90.28C63.068 90.28 63.716 90.044 64.308 89.572L64.632 90.28C64.368 90.528 64.028 90.724 63.612 90.868C63.204 91.012 62.784 91.084 62.352 91.084C61.408 91.084 60.668 90.808 60.132 90.256C59.596 89.696 59.328 88.932 59.328 87.964C59.328 87.348 59.448 86.804 59.688 86.332C59.928 85.852 60.264 85.48 60.696 85.216C61.128 84.952 61.62 84.82 62.172 84.82C62.972 84.82 63.6 85.084 64.056 85.612C64.512 86.132 64.74 86.852 64.74 87.772V87.952ZM62.184 85.576C61.68 85.576 61.268 85.728 60.948 86.032C60.636 86.336 60.436 86.764 60.348 87.316H63.864C63.816 86.748 63.648 86.316 63.36 86.02C63.08 85.724 62.688 85.576 62.184 85.576ZM68.2553 91.084C67.2393 91.084 66.4353 90.824 65.8433 90.304L66.1673 89.584C66.4953 89.84 66.8273 90.024 67.1633 90.136C67.4993 90.248 67.8753 90.304 68.2913 90.304C68.7473 90.304 69.0913 90.228 69.3233 90.076C69.5633 89.916 69.6833 89.688 69.6833 89.392C69.6833 89.152 69.6033 88.96 69.4433 88.816C69.2833 88.672 69.0193 88.56 68.6513 88.48L67.6313 88.24C67.1273 88.128 66.7353 87.928 66.4553 87.64C66.1833 87.352 66.0473 87.008 66.0473 86.608C66.0473 86.08 66.2593 85.652 66.6833 85.324C67.1073 84.988 67.6673 84.82 68.3633 84.82C68.7873 84.82 69.1873 84.888 69.5633 85.024C69.9393 85.16 70.2553 85.356 70.5113 85.612L70.1873 86.32C69.6193 85.848 69.0113 85.612 68.3633 85.612C67.9313 85.612 67.5953 85.696 67.3553 85.864C67.1233 86.024 67.0073 86.252 67.0073 86.548C67.0073 86.796 67.0793 86.992 67.2233 87.136C67.3753 87.28 67.6153 87.392 67.9433 87.472L68.9633 87.724C69.5233 87.852 69.9393 88.052 70.2113 88.324C70.4833 88.588 70.6193 88.936 70.6193 89.368C70.6193 89.888 70.4073 90.304 69.9833 90.616C69.5593 90.928 68.9833 91.084 68.2553 91.084ZM77.4844 84.964V91H76.5244V89.908C76.3484 90.284 76.0804 90.576 75.7204 90.784C75.3684 90.984 74.9564 91.084 74.4844 91.084C73.9484 91.084 73.4764 90.956 73.0684 90.7C72.6684 90.444 72.3564 90.084 72.1324 89.62C71.9164 89.148 71.8084 88.6 71.8084 87.976C71.8084 87.352 71.9204 86.804 72.1444 86.332C72.3684 85.852 72.6804 85.48 73.0804 85.216C73.4884 84.952 73.9564 84.82 74.4844 84.82C74.9564 84.82 75.3684 84.924 75.7204 85.132C76.0724 85.34 76.3404 85.632 76.5244 86.008V84.964H77.4844ZM74.6764 90.28C75.2684 90.28 75.7244 90.08 76.0444 89.68C76.3644 89.272 76.5244 88.696 76.5244 87.952C76.5244 87.208 76.3644 86.636 76.0444 86.236C75.7244 85.836 75.2684 85.636 74.6764 85.636C74.0844 85.636 73.6204 85.844 73.2844 86.26C72.9564 86.668 72.7924 87.24 72.7924 87.976C72.7924 88.712 72.9564 89.28 73.2844 89.68C73.6124 90.08 74.0764 90.28 74.6764 90.28ZM78.1517 91.66L81.2357 82.012H82.1357L79.0397 91.66H78.1517ZM1.52475 97.456H4.93275C5.81275 97.456 6.49675 97.668 6.98475 98.092C7.48075 98.516 7.72875 99.1 7.72875 99.844C7.72875 100.588 7.48075 101.176 6.98475 101.608C6.48875 102.032 5.80475 102.244 4.93275 102.244H2.50875V106H1.52475V97.456ZM4.84875 101.428C5.48075 101.428 5.95675 101.292 6.27675 101.02C6.59675 100.748 6.75675 100.356 6.75675 99.844C6.75675 99.332 6.59675 98.944 6.27675 98.68C5.95675 98.408 5.48075 98.272 4.84875 98.272H2.50875V101.428H4.84875ZM14.0857 102.952H9.65766C9.66566 103.72 9.84166 104.3 10.1857 104.692C10.5377 105.084 11.0457 105.28 11.7097 105.28C12.4137 105.28 13.0617 105.044 13.6537 104.572L13.9777 105.28C13.7137 105.528 13.3737 105.724 12.9577 105.868C12.5497 106.012 12.1297 106.084 11.6977 106.084C10.7537 106.084 10.0137 105.808 9.47766 105.256C8.94166 104.696 8.67366 103.932 8.67366 102.964C8.67366 102.348 8.79366 101.804 9.03366 101.332C9.27366 100.852 9.60966 100.48 10.0417 100.216C10.4737 99.952 10.9657 99.82 11.5177 99.82C12.3177 99.82 12.9457 100.084 13.4017 100.612C13.8577 101.132 14.0857 101.852 14.0857 102.772V102.952ZM11.5297 100.576C11.0257 100.576 10.6137 100.728 10.2937 101.032C9.98166 101.336 9.78166 101.764 9.69366 102.316H13.2097C13.1617 101.748 12.9937 101.316 12.7057 101.02C12.4257 100.724 12.0337 100.576 11.5297 100.576ZM18.369 99.82C18.569 99.82 18.753 99.844 18.921 99.892L18.897 100.78C18.713 100.716 18.501 100.684 18.261 100.684C17.677 100.684 17.241 100.868 16.953 101.236C16.673 101.596 16.533 102.036 16.533 102.556V106H15.561V101.656C15.561 101.032 15.529 100.468 15.465 99.964H16.389L16.485 101.08C16.637 100.672 16.881 100.36 17.217 100.144C17.553 99.928 17.937 99.82 18.369 99.82ZM25.1075 99.964V106H24.1475V104.908C23.9715 105.284 23.7035 105.576 23.3435 105.784C22.9915 105.984 22.5795 106.084 22.1075 106.084C21.5715 106.084 21.0995 105.956 20.6915 105.7C20.2915 105.444 19.9795 105.084 19.7555 104.62C19.5395 104.148 19.4315 103.6 19.4315 102.976C19.4315 102.352 19.5435 101.804 19.7675 101.332C19.9915 100.852 20.3035 100.48 20.7035 100.216C21.1115 99.952 21.5795 99.82 22.1075 99.82C22.5795 99.82 22.9915 99.924 23.3435 100.132C23.6955 100.34 23.9635 100.632 24.1475 101.008V99.964H25.1075ZM22.2995 105.28C22.8915 105.28 23.3475 105.08 23.6675 104.68C23.9875 104.272 24.1475 103.696 24.1475 102.952C24.1475 102.208 23.9875 101.636 23.6675 101.236C23.3475 100.836 22.8915 100.636 22.2995 100.636C21.7075 100.636 21.2435 100.844 20.9075 101.26C20.5795 101.668 20.4155 102.24 20.4155 102.976C20.4155 103.712 20.5795 104.28 20.9075 104.68C21.2355 105.08 21.6995 105.28 22.2995 105.28ZM29.9988 99.82C31.4468 99.82 32.1708 100.616 32.1708 102.208V106H31.1988V102.256C31.1988 101.696 31.0868 101.288 30.8628 101.032C30.6388 100.768 30.2868 100.636 29.8068 100.636C29.2468 100.636 28.7988 100.808 28.4628 101.152C28.1268 101.496 27.9588 101.96 27.9588 102.544V106H26.9868V101.656C26.9868 101.032 26.9548 100.468 26.8908 99.964H27.8148L27.9108 101.044C28.0948 100.652 28.3708 100.352 28.7388 100.144C29.1068 99.928 29.5268 99.82 29.9988 99.82ZM39.3823 99.964V105.952C39.3823 106.848 39.1503 107.524 38.6863 107.98C38.2303 108.444 37.5543 108.676 36.6583 108.676C35.7383 108.676 34.9463 108.468 34.2823 108.052L34.4503 107.26C34.8343 107.476 35.1943 107.632 35.5303 107.728C35.8743 107.824 36.2503 107.872 36.6583 107.872C37.2423 107.872 37.6823 107.716 37.9783 107.404C38.2743 107.1 38.4223 106.644 38.4223 106.036V104.608C38.2383 104.992 37.9663 105.292 37.6063 105.508C37.2543 105.716 36.8343 105.82 36.3463 105.82C35.8183 105.82 35.3463 105.696 34.9303 105.448C34.5223 105.2 34.2063 104.848 33.9823 104.392C33.7583 103.936 33.6463 103.412 33.6463 102.82C33.6463 102.228 33.7583 101.704 33.9823 101.248C34.2063 100.792 34.5223 100.44 34.9303 100.192C35.3463 99.944 35.8183 99.82 36.3463 99.82C36.8263 99.82 37.2423 99.924 37.5943 100.132C37.9543 100.34 38.2263 100.632 38.4103 101.008V99.964H39.3823ZM36.5383 105.004C37.1223 105.004 37.5783 104.812 37.9063 104.428C38.2423 104.036 38.4103 103.5 38.4103 102.82C38.4103 102.14 38.2423 101.608 37.9063 101.224C37.5783 100.832 37.1223 100.636 36.5383 100.636C35.9463 100.636 35.4783 100.832 35.1343 101.224C34.7983 101.608 34.6303 102.14 34.6303 102.82C34.6303 103.5 34.7983 104.036 35.1343 104.428C35.4783 104.812 35.9463 105.004 36.5383 105.004ZM45.3165 106L42.2205 103.096V106H41.2485V97.168H42.2205V102.736L45.0645 99.976H46.3005L43.2765 102.868L46.5885 106H45.3165ZM52.6348 99.964V106H51.6748V104.908C51.4988 105.284 51.2308 105.576 50.8708 105.784C50.5188 105.984 50.1068 106.084 49.6348 106.084C49.0988 106.084 48.6268 105.956 48.2188 105.7C47.8188 105.444 47.5068 105.084 47.2828 104.62C47.0668 104.148 46.9588 103.6 46.9588 102.976C46.9588 102.352 47.0708 101.804 47.2948 101.332C47.5188 100.852 47.8308 100.48 48.2308 100.216C48.6388 99.952 49.1068 99.82 49.6348 99.82C50.1068 99.82 50.5188 99.924 50.8708 100.132C51.2228 100.34 51.4908 100.632 51.6748 101.008V99.964H52.6348ZM49.8268 105.28C50.4188 105.28 50.8748 105.08 51.1948 104.68C51.5148 104.272 51.6748 103.696 51.6748 102.952C51.6748 102.208 51.5148 101.636 51.1948 101.236C50.8748 100.836 50.4188 100.636 49.8268 100.636C49.2348 100.636 48.7708 100.844 48.4348 101.26C48.1068 101.668 47.9428 102.24 47.9428 102.976C47.9428 103.712 48.1068 104.28 48.4348 104.68C48.7628 105.08 49.2268 105.28 49.8268 105.28ZM55.8101 100.732V104.032C55.8101 104.48 55.9021 104.796 56.0861 104.98C56.2701 105.156 56.5301 105.244 56.8661 105.244C57.0901 105.244 57.3061 105.208 57.5141 105.136V105.964C57.2661 106.044 56.9861 106.084 56.6741 106.084C56.0981 106.084 55.6461 105.924 55.3181 105.604C54.9981 105.276 54.8381 104.796 54.8381 104.164V100.732H53.6621V99.964H54.8381V98.416L55.8101 98.068V99.964H57.5381V100.732H55.8101ZM61.9583 97.456H64.8263C66.1943 97.456 67.2503 97.828 67.9943 98.572C68.7463 99.308 69.1223 100.356 69.1223 101.716C69.1223 103.084 68.7463 104.14 67.9943 104.884C67.2503 105.628 66.1943 106 64.8263 106H61.9583V97.456ZM64.7663 105.16C65.8703 105.16 66.6983 104.872 67.2503 104.296C67.8103 103.72 68.0903 102.86 68.0903 101.716C68.0903 99.436 66.9823 98.296 64.7663 98.296H62.9423V105.16H64.7663ZM75.8435 102.952H71.4155C71.4235 103.72 71.5995 104.3 71.9435 104.692C72.2955 105.084 72.8035 105.28 73.4675 105.28C74.1715 105.28 74.8195 105.044 75.4115 104.572L75.7355 105.28C75.4715 105.528 75.1315 105.724 74.7155 105.868C74.3075 106.012 73.8875 106.084 73.4555 106.084C72.5115 106.084 71.7715 105.808 71.2355 105.256C70.6995 104.696 70.4315 103.932 70.4315 102.964C70.4315 102.348 70.5515 101.804 70.7915 101.332C71.0315 100.852 71.3675 100.48 71.7995 100.216C72.2315 99.952 72.7235 99.82 73.2755 99.82C74.0755 99.82 74.7035 100.084 75.1595 100.612C75.6155 101.132 75.8435 101.852 75.8435 102.772V102.952ZM73.2875 100.576C72.7835 100.576 72.3715 100.728 72.0515 101.032C71.7395 101.336 71.5395 101.764 71.4515 102.316H74.9675C74.9195 101.748 74.7515 101.316 74.4635 101.02C74.1835 100.724 73.7915 100.576 73.2875 100.576ZM79.3588 106.084C78.3428 106.084 77.5388 105.824 76.9468 105.304L77.2708 104.584C77.5988 104.84 77.9308 105.024 78.2668 105.136C78.6028 105.248 78.9788 105.304 79.3948 105.304C79.8508 105.304 80.1948 105.228 80.4268 105.076C80.6668 104.916 80.7868 104.688 80.7868 104.392C80.7868 104.152 80.7068 103.96 80.5468 103.816C80.3868 103.672 80.1228 103.56 79.7548 103.48L78.7348 103.24C78.2308 103.128 77.8388 102.928 77.5588 102.64C77.2868 102.352 77.1508 102.008 77.1508 101.608C77.1508 101.08 77.3628 100.652 77.7868 100.324C78.2108 99.988 78.7708 99.82 79.4668 99.82C79.8908 99.82 80.2908 99.888 80.6668 100.024C81.0428 100.16 81.3588 100.356 81.6148 100.612L81.2908 101.32C80.7228 100.848 80.1148 100.612 79.4668 100.612C79.0348 100.612 78.6988 100.696 78.4588 100.864C78.2268 101.024 78.1108 101.252 78.1108 101.548C78.1108 101.796 78.1828 101.992 78.3268 102.136C78.4788 102.28 78.7188 102.392 79.0468 102.472L80.0668 102.724C80.6268 102.852 81.0428 103.052 81.3148 103.324C81.5868 103.588 81.7228 103.936 81.7228 104.368C81.7228 104.888 81.5108 105.304 81.0868 105.616C80.6628 105.928 80.0868 106.084 79.3588 106.084ZM88.5879 99.964V106H87.6279V104.908C87.4519 105.284 87.1839 105.576 86.8239 105.784C86.4719 105.984 86.0599 106.084 85.5879 106.084C85.0519 106.084 84.5799 105.956 84.1719 105.7C83.7719 105.444 83.4599 105.084 83.2359 104.62C83.0199 104.148 82.9119 103.6 82.9119 102.976C82.9119 102.352 83.0239 101.804 83.2479 101.332C83.4719 100.852 83.7839 100.48 84.1839 100.216C84.5919 99.952 85.0599 99.82 85.5879 99.82C86.0599 99.82 86.4719 99.924 86.8239 100.132C87.1759 100.34 87.4439 100.632 87.6279 101.008V99.964H88.5879ZM85.7799 105.28C86.3719 105.28 86.8279 105.08 87.1479 104.68C87.4679 104.272 87.6279 103.696 87.6279 102.952C87.6279 102.208 87.4679 101.636 87.1479 101.236C86.8279 100.836 86.3719 100.636 85.7799 100.636C85.1879 100.636 84.7239 100.844 84.3879 101.26C84.0599 101.668 83.8959 102.24 83.8959 102.976C83.8959 103.712 84.0599 104.28 84.3879 104.68C84.7159 105.08 85.1799 105.28 85.7799 105.28Z" fill="black"/>
<path d="M66.5974 35.7327L66.6032 35.7172L46.8877 18.5764V18.5784C46.532 18.222 46.0434 18 45.5 18C44.9566 18 44.468 18.222 44.1123 18.5784V18.5764L24.3968 35.7172L24.4026 35.7327C24.1642 35.9119 24 36.1806 24 36.5C24 37.0375 24.4378 37.4737 24.9773 37.4737H29.8636V53.0526C29.8636 54.1276 30.7393 55 31.8182 55H59.1818C60.2607 55 61.1364 54.1276 61.1364 53.0526V37.4737H66.0227C66.5622 37.4737 67 37.0375 67 36.5C67 36.1806 66.8358 35.9119 66.5974 35.7327ZM45.5 31.6316C47.6598 31.6316 49.4091 33.3745 49.4091 35.5263C49.4091 37.6782 47.6598 39.4211 45.5 39.4211C43.3402 39.4211 41.5909 37.6782 41.5909 35.5263C41.5909 33.3745 43.3402 31.6316 45.5 31.6316ZM52.3409 47.2105H38.6591C38.1196 47.2105 37.6818 46.7743 37.6818 46.2368V45.8493C37.6818 43.2593 42.0209 41.8553 45.5 41.8553C48.9791 41.8553 53.3182 43.2593 53.3182 45.8493V46.2368C53.3182 46.7743 52.8804 47.2105 52.3409 47.2105Z" fill="white"/>
<defs>
<filter id="filter0_d" x="3" y="0" width="84" height="84" filterUnits="userSpaceOnUse" color-interpolation-filters="sRGB">
<feFlood flood-opacity="0" result="BackgroundImageFix"/>
<feColorMatrix in="SourceAlpha" type="matrix" values="0 0 0 0 0 0 0 0 0 0 0 0 0 0 0 0 0 0 127 0" result="hardAlpha"/>
<feOffset dy="5"/>
<feGaussianBlur stdDeviation="4.5"/>
<feColorMatrix type="matrix" values="0 0 0 0 0 0 0 0 0 0 0 0 0 0 0 0 0 0 0.25 0"/>
<feBlend mode="normal" in2="BackgroundImageFix" result="effect1_dropShadow"/>
<feBlend mode="normal" in="SourceGraphic" in2="effect1_dropShadow" result="shape"/>
</filter>
</defs>
</svg>
