<svg width="84" height="109" viewBox="0 0 84 109" fill="none" xmlns="http://www.w3.org/2000/svg">
<g filter="url(#filter0_d)">
<rect x="9" y="4" width="66" height="66" rx="15" fill="#48C1F0"/>
</g>
<path d="M6.60828 83.296H3.63228V82.456H10.5803V83.296H7.60428V91H6.60828V83.296ZM11.6548 84.964H12.6268V91H11.6548V84.964ZM12.7468 82.408V83.512H11.5588V82.408H12.7468ZM21.2101 84.82C22.5461 84.82 23.2141 85.616 23.2141 87.208V91H22.2421V87.256C22.2421 86.688 22.1421 86.276 21.9421 86.02C21.7501 85.764 21.4341 85.636 20.9941 85.636C20.4821 85.636 20.0821 85.808 19.7941 86.152C19.5061 86.496 19.3621 86.964 19.3621 87.556V91H18.3901V87.256C18.3901 86.696 18.2901 86.288 18.0901 86.032C17.8901 85.768 17.5701 85.636 17.1301 85.636C16.6181 85.636 16.2141 85.808 15.9181 86.152C15.6301 86.496 15.4861 86.964 15.4861 87.556V91H14.5141V86.656C14.5141 86.032 14.4821 85.468 14.4181 84.964H15.3421L15.4381 86.02C15.6061 85.636 15.8541 85.34 16.1821 85.132C16.5181 84.924 16.9061 84.82 17.3461 84.82C17.8261 84.82 18.2181 84.916 18.5221 85.108C18.8261 85.3 19.0501 85.596 19.1941 85.996C19.3781 85.636 19.6461 85.352 19.9981 85.144C20.3581 84.928 20.7621 84.82 21.2101 84.82ZM31.0219 91.096C29.6859 91.096 28.6219 90.736 27.8299 90.016L28.2019 89.26C28.6259 89.62 29.0579 89.876 29.4979 90.028C29.9379 90.18 30.4499 90.256 31.0339 90.256C31.7219 90.256 32.2499 90.124 32.6179 89.86C32.9939 89.588 33.1819 89.208 33.1819 88.72C33.1819 88.432 33.0899 88.2 32.9059 88.024C32.7299 87.84 32.4939 87.696 32.1979 87.592C31.9099 87.488 31.5219 87.38 31.0339 87.268C30.3779 87.124 29.8379 86.968 29.4139 86.8C28.9899 86.632 28.6459 86.392 28.3819 86.08C28.1179 85.76 27.9859 85.344 27.9859 84.832C27.9859 84.344 28.1139 83.916 28.3699 83.548C28.6259 83.172 28.9859 82.88 29.4499 82.672C29.9219 82.464 30.4699 82.36 31.0939 82.36C31.6859 82.36 32.2379 82.452 32.7499 82.636C33.2619 82.82 33.6939 83.088 34.0459 83.44L33.6619 84.196C33.2619 83.852 32.8539 83.6 32.4379 83.44C32.0299 83.28 31.5819 83.2 31.0939 83.2C30.4299 83.2 29.9099 83.344 29.5339 83.632C29.1579 83.912 28.9699 84.3 28.9699 84.796C28.9699 85.228 29.1339 85.552 29.4619 85.768C29.7899 85.984 30.2939 86.172 30.9739 86.332C31.7099 86.508 32.2859 86.672 32.7019 86.824C33.1259 86.968 33.4779 87.192 33.7579 87.496C34.0379 87.792 34.1779 88.188 34.1779 88.684C34.1779 89.164 34.0499 89.588 33.7939 89.956C33.5379 90.316 33.1699 90.596 32.6899 90.796C32.2179 90.996 31.6619 91.096 31.0219 91.096ZM35.7865 82.456H36.7705V91H35.7865V82.456ZM38.8802 82.456H42.2882C43.1682 82.456 43.8522 82.668 44.3402 83.092C44.8362 83.516 45.0842 84.1 45.0842 84.844C45.0842 85.588 44.8362 86.176 44.3402 86.608C43.8442 87.032 43.1602 87.244 42.2882 87.244H39.8642V91H38.8802V82.456ZM42.2042 86.428C42.8362 86.428 43.3122 86.292 43.6322 86.02C43.9522 85.748 44.1122 85.356 44.1122 84.844C44.1122 84.332 43.9522 83.944 43.6322 83.68C43.3122 83.408 42.8362 83.272 42.2042 83.272H39.8642V86.428H42.2042ZM46.6966 82.456H52.0966V83.272H47.6686V86.248H51.8566V87.076H47.6686V90.184H52.0966V91H46.6966V82.456ZM60.6033 82.456V91H59.8353L54.6753 84.124V91H53.7513V82.456H54.5073L59.6673 89.332V82.456H60.6033ZM62.7044 82.456H66.1124C66.9924 82.456 67.6764 82.668 68.1644 83.092C68.6604 83.516 68.9084 84.1 68.9084 84.844C68.9084 85.588 68.6604 86.176 68.1644 86.608C67.6684 87.032 66.9844 87.244 66.1124 87.244H63.6884V91H62.7044V82.456ZM66.0284 86.428C66.6604 86.428 67.1364 86.292 67.4564 86.02C67.7764 85.748 67.9364 85.356 67.9364 84.844C67.9364 84.332 67.7764 83.944 67.4564 83.68C67.1364 83.408 66.6604 83.272 66.0284 83.272H63.6884V86.428H66.0284ZM70.5208 82.456H71.5048V91H70.5208V82.456ZM80.4666 82.456V91H79.6986L74.5386 84.124V91H73.6146V82.456H74.3706L79.5306 89.332V82.456H80.4666ZM30.061 106.096C28.725 106.096 27.661 105.736 26.869 105.016L27.241 104.26C27.665 104.62 28.097 104.876 28.537 105.028C28.977 105.18 29.489 105.256 30.073 105.256C30.761 105.256 31.289 105.124 31.657 104.86C32.033 104.588 32.221 104.208 32.221 103.72C32.221 103.432 32.129 103.2 31.945 103.024C31.769 102.84 31.533 102.696 31.237 102.592C30.949 102.488 30.561 102.38 30.073 102.268C29.417 102.124 28.877 101.968 28.453 101.8C28.029 101.632 27.685 101.392 27.421 101.08C27.157 100.76 27.025 100.344 27.025 99.832C27.025 99.344 27.153 98.916 27.409 98.548C27.665 98.172 28.025 97.88 28.489 97.672C28.961 97.464 29.509 97.36 30.133 97.36C30.725 97.36 31.277 97.452 31.789 97.636C32.301 97.82 32.733 98.088 33.085 98.44L32.701 99.196C32.301 98.852 31.893 98.6 31.477 98.44C31.069 98.28 30.621 98.2 30.133 98.2C29.469 98.2 28.949 98.344 28.573 98.632C28.197 98.912 28.009 99.3 28.009 99.796C28.009 100.228 28.173 100.552 28.501 100.768C28.829 100.984 29.333 101.172 30.013 101.332C30.749 101.508 31.325 101.672 31.741 101.824C32.165 101.968 32.517 102.192 32.797 102.496C33.077 102.792 33.217 103.188 33.217 103.684C33.217 104.164 33.089 104.588 32.833 104.956C32.577 105.316 32.209 105.596 31.729 105.796C31.257 105.996 30.701 106.096 30.061 106.096ZM39.7575 102.952H35.3295C35.3375 103.72 35.5135 104.3 35.8575 104.692C36.2095 105.084 36.7175 105.28 37.3815 105.28C38.0855 105.28 38.7335 105.044 39.3255 104.572L39.6495 105.28C39.3855 105.528 39.0455 105.724 38.6295 105.868C38.2215 106.012 37.8015 106.084 37.3695 106.084C36.4255 106.084 35.6855 105.808 35.1495 105.256C34.6135 104.696 34.3455 103.932 34.3455 102.964C34.3455 102.348 34.4655 101.804 34.7055 101.332C34.9455 100.852 35.2815 100.48 35.7135 100.216C36.1455 99.952 36.6375 99.82 37.1895 99.82C37.9895 99.82 38.6175 100.084 39.0735 100.612C39.5295 101.132 39.7575 101.852 39.7575 102.772V102.952ZM37.2015 100.576C36.6975 100.576 36.2855 100.728 35.9655 101.032C35.6535 101.336 35.4535 101.764 35.3655 102.316H38.8815C38.8335 101.748 38.6655 101.316 38.3775 101.02C38.0975 100.724 37.7055 100.576 37.2015 100.576ZM44.2449 99.82C45.6929 99.82 46.4169 100.616 46.4169 102.208V106H45.4449V102.256C45.4449 101.696 45.3329 101.288 45.1089 101.032C44.8849 100.768 44.5329 100.636 44.0529 100.636C43.4929 100.636 43.0449 100.808 42.7089 101.152C42.3729 101.496 42.2049 101.96 42.2049 102.544V106H41.2329V97.168H42.2049V100.948C42.3969 100.58 42.6689 100.3 43.0209 100.108C43.3809 99.916 43.7889 99.82 44.2449 99.82ZM53.5684 99.964V106H52.6084V104.908C52.4324 105.284 52.1644 105.576 51.8044 105.784C51.4524 105.984 51.0404 106.084 50.5684 106.084C50.0324 106.084 49.5604 105.956 49.1524 105.7C48.7524 105.444 48.4404 105.084 48.2164 104.62C48.0004 104.148 47.8924 103.6 47.8924 102.976C47.8924 102.352 48.0044 101.804 48.2284 101.332C48.4524 100.852 48.7644 100.48 49.1644 100.216C49.5724 99.952 50.0404 99.82 50.5684 99.82C51.0404 99.82 51.4524 99.924 51.8044 100.132C52.1564 100.34 52.4244 100.632 52.6084 101.008V99.964H53.5684ZM50.7604 105.28C51.3524 105.28 51.8084 105.08 52.1284 104.68C52.4484 104.272 52.6084 103.696 52.6084 102.952C52.6084 102.208 52.4484 101.636 52.1284 101.236C51.8084 100.836 51.3524 100.636 50.7604 100.636C50.1684 100.636 49.7044 100.844 49.3684 101.26C49.0404 101.668 48.8764 102.24 48.8764 102.976C48.8764 103.712 49.0404 104.28 49.3684 104.68C49.6964 105.08 50.1604 105.28 50.7604 105.28ZM56.7437 100.732V104.032C56.7437 104.48 56.8357 104.796 57.0197 104.98C57.2037 105.156 57.4637 105.244 57.7997 105.244C58.0237 105.244 58.2397 105.208 58.4477 105.136V105.964C58.1997 106.044 57.9197 106.084 57.6077 106.084C57.0317 106.084 56.5797 105.924 56.2517 105.604C55.9317 105.276 55.7717 104.796 55.7717 104.164V100.732H54.5957V99.964H55.7717V98.416L56.7437 98.068V99.964H58.4717V100.732H56.7437Z" fill="black"/>
<path d="M37.2308 20C35.6743 20 34.3846 21.2839 34.3846 22.8333V25.6667H27.2692C24.9234 25.6667 23 27.5814 23 29.9167V49.75C23 52.0853 24.9234 54 27.2692 54H55.7308C58.0766 54 60 52.0853 60 49.75V29.9167C60 27.5814 58.0766 25.6667 55.7308 25.6667H48.6154V22.8333C48.6154 21.2839 47.3257 20 45.7692 20H37.2308ZM37.2308 22.8333H45.7692V25.6667H37.2308V22.8333ZM27.2692 28.5H55.7308C56.5312 28.5 57.1538 29.1198 57.1538 29.9167V49.75C57.1538 50.5469 56.5312 51.1667 55.7308 51.1667H27.2692C26.4687 51.1667 25.8462 50.5469 25.8462 49.75V29.9167C25.8462 29.1198 26.4687 28.5 27.2692 28.5ZM40.0769 31.3333V37H34.3846V39.8333H40.0769V45.5H42.9231V39.8333H48.6154V37H42.9231V31.3333H40.0769Z" fill="white"/>
<defs>
<filter id="filter0_d" x="0" y="0" width="84" height="84" filterUnits="userSpaceOnUse" color-interpolation-filters="sRGB">
<feFlood flood-opacity="0" result="BackgroundImageFix"/>
<feColorMatrix in="SourceAlpha" type="matrix" values="0 0 0 0 0 0 0 0 0 0 0 0 0 0 0 0 0 0 127 0" result="hardAlpha"/>
<feOffset dy="5"/>
<feGaussianBlur stdDeviation="4.5"/>
<feColorMatrix type="matrix" values="0 0 0 0 0 0 0 0 0 0 0 0 0 0 0 0 0 0 0.25 0"/>
<feBlend mode="normal" in2="BackgroundImageFix" result="effect1_dropShadow"/>
<feBlend mode="normal" in="SourceGraphic" in2="effect1_dropShadow" result="shape"/>
</filter>
</defs>
</svg>
